<svg width="241" height="13" viewBox="0 0 241 13" fill="none" xmlns="http://www.w3.org/2000/svg">
<g clip-path="url(#clip0_95_110)">
<path d="M122.514 6.2699C122.514 7.38297 121.611 8.28675 120.498 8.28675C119.384 8.28675 118.481 7.38297 118.481 6.2699C118.481 5.15683 119.384 4.25305 120.498 4.25305C121.611 4.25305 122.514 5.15683 122.514 6.2699Z" fill="#CDCDCD"/>
<path d="M231.71 6.26997C235.044 6.26997 237.755 3.5634 237.755 0.224182C237.755 2.03173 238.55 3.65377 239.806 4.76209C240.728 5.57073 240.728 6.96445 239.806 7.77309C238.55 8.8814 237.755 10.5034 237.755 12.311C237.755 8.97178 235.044 6.26521 231.71 6.26521V6.26997Z" fill="#CDCDCD"/>
<path d="M228.965 6.26996C228.965 7.38303 229.869 8.28681 230.982 8.28681C232.095 8.28681 232.999 7.38303 232.999 6.26996C232.999 5.15689 232.095 4.25311 230.982 4.25311C229.869 4.25311 228.965 5.15689 228.965 6.26996Z" fill="#CDCDCD"/>
<path d="M230.763 5.84186H119.223V6.69807H230.763V5.84186Z" fill="#CDCDCD"/>
<path d="M123.575 5.84186H12.0349V6.69807H123.575V5.84186Z" fill="#CDCDCD"/>
<path d="M3.2398 12.3157C3.2398 10.5082 2.44543 8.88616 1.18966 7.77784C0.266858 6.9692 0.266858 5.57549 1.18966 4.76684C2.45019 3.65377 3.2398 2.03173 3.2398 0.224182C3.2398 3.5634 5.95113 6.26997 9.28559 6.26997C5.95113 6.26997 3.2398 8.97654 3.2398 12.3157Z" fill="#CDCDCD"/>
<path d="M12.0349 6.26996C12.0349 7.38303 11.1311 8.28681 10.0181 8.28681C8.905 8.28681 8.00122 7.38303 8.00122 6.26996C8.00122 5.15689 8.905 4.25311 10.0181 4.25311C11.1311 4.25311 12.0349 5.15689 12.0349 6.26996Z" fill="#CDCDCD"/>
</g>
<defs>
<clipPath id="clip0_95_110">
<rect width="240" height="12.0916" fill="white" transform="translate(0.5 0.224121)"/>
</clipPath>
</defs>
</svg>
